<svg width="24" height="24" viewBox="0 0 24 24" fill="none" xmlns="http://www.w3.org/2000/svg">
<g id="add_FILL0_wght400_GRAD0_opsz48 2">
<path id="Vector" d="M5.625 22C4.89167 22 4.27083 21.7458 3.7625 21.2375C3.25417 20.7292 3 20.1083 3 19.375V16H6V2H21V11.65C20.7333 11.65 20.475 11.7 20.225 11.8C19.975 11.9 19.7333 12.0417 19.5 12.225V3.5H7.5V16H15.7L14.2 17.5H4.5V19.375C4.5 19.6917 4.60833 19.9583 4.825 20.175C5.04167 20.3917 5.3 20.5 5.6 20.5H13V22H5.625ZM14.5 22V19.325L18.9 14.925L19.6 15.625L15.5 19.725V21H16.775L20.875 16.9L21.575 17.6L17.175 22H14.5ZM21.575 17.6L18.9 14.925L20.425 13.4C20.575 13.25 20.75 13.175 20.95 13.175C21.15 13.175 21.325 13.25 21.475 13.4L23.1 15.025C23.25 15.175 23.325 15.35 23.325 15.55C23.325 15.75 23.25 15.925 23.1 16.075L21.575 17.6ZM9 8V6.5H18V8H9ZM9 11V9.5H18V11H9Z" fill="#005D9F"/>
</g>
</svg>
