<svg width="25" height="24" viewBox="0 0 25 24" fill="none" xmlns="http://www.w3.org/2000/svg">
<g id="nest_thermostat_e_eu_FILL0_wght300_GRAD0_opsz24 2">
<path id="Vector" d="M5.45182 21.5C5.03643 21.5 4.68259 21.3522 4.39029 21.0567C4.09799 20.7612 3.95184 20.409 3.95184 20H8.60184C7.08004 19.2744 5.81722 18.183 4.81337 16.726C3.80953 15.2689 3.30762 13.5878 3.30762 11.6827C3.30762 10.4109 3.5496 9.21927 4.03357 8.10773C4.51753 6.99618 5.17426 6.02407 6.00374 5.19138C6.83324 4.3587 7.80536 3.70197 8.92009 3.22121C10.0348 2.74042 11.2281 2.50003 12.4999 2.50003C13.7717 2.50003 14.9649 2.74042 16.0797 3.22121C17.1944 3.70197 18.1665 4.3587 18.996 5.19138C19.8255 6.02407 20.4823 6.99618 20.9662 8.10773C21.4502 9.21927 21.6922 10.4109 21.6922 11.6827C21.6922 13.5878 21.1919 15.2689 20.1912 16.726C19.1906 18.183 17.9261 19.2744 16.3979 20H21.0479C21.0479 20.409 20.9018 20.7612 20.6095 21.0567C20.3172 21.3522 19.9634 21.5 19.548 21.5H5.45182ZM12.4999 19.375C14.6409 19.375 16.4582 18.6282 17.9518 17.1347C19.4454 15.6411 20.1922 13.8237 20.1922 11.6827C20.1922 9.54167 19.4454 7.72596 17.9518 6.23558C16.4582 4.7452 14.6409 4.00001 12.4999 4.00001C10.3589 4.00001 8.54155 4.7452 7.04797 6.23558C5.55437 7.72596 4.80757 9.54167 4.80757 11.6827C4.80757 13.8237 5.55437 15.6411 7.04797 17.1347C8.54155 18.6282 10.3589 19.375 12.4999 19.375ZM7.85759 14.8173H11.5422V13.9481H9.10179L9.08642 13.9173C9.38128 13.6224 9.66205 13.349 9.92872 13.0971C10.1954 12.8452 10.4146 12.6333 10.5864 12.4615C10.88 12.1679 11.1012 11.8728 11.2499 11.576C11.3986 11.2792 11.473 10.9789 11.473 10.675C11.473 10.2507 11.3069 9.87501 10.9749 9.54808C10.6428 9.22116 10.1928 9.05771 9.62489 9.05771C9.07106 9.05771 8.65023 9.20866 8.36239 9.51058C8.07458 9.8125 7.89285 10.0744 7.81722 10.2962L8.67682 10.6385C8.71912 10.541 8.80983 10.4032 8.94894 10.225C9.08804 10.0468 9.30503 9.95768 9.59989 9.95768C9.95118 9.95768 10.1884 10.0554 10.3114 10.251C10.4345 10.4465 10.496 10.6045 10.496 10.725C10.496 10.8776 10.4662 11.0311 10.4066 11.1856C10.347 11.3401 10.189 11.5558 9.93259 11.8327C9.76978 12.0058 9.48901 12.2885 9.09029 12.6808C8.69158 13.0731 8.28068 13.4776 7.85759 13.8942V14.8173ZM14.8499 14.9423C15.5807 14.9423 16.1537 14.6612 16.5691 14.099C16.9845 13.5369 17.1922 12.8372 17.1922 12C17.1922 11.1628 16.9803 10.4631 16.5566 9.90098C16.1329 9.3388 15.564 9.05771 14.8499 9.05771C14.1191 9.05771 13.5461 9.3388 13.1307 9.90098C12.7153 10.4631 12.5076 11.1628 12.5076 12C12.5076 12.8372 12.7153 13.5369 13.1307 14.099C13.5461 14.6612 14.1191 14.9423 14.8499 14.9423ZM14.8499 14.0423C14.3973 14.0423 14.0515 13.8513 13.8124 13.4692C13.5733 13.0872 13.4537 12.5974 13.4537 12C13.4537 11.491 13.5662 11.0234 13.7912 10.5971C14.0162 10.1708 14.3691 9.95768 14.8499 9.95768C15.3307 9.95768 15.6835 10.1708 15.9085 10.5971C16.1335 11.0234 16.246 11.491 16.246 12C16.246 12.5974 16.1265 13.0872 15.8874 13.4692C15.6483 13.8513 15.3025 14.0423 14.8499 14.0423Z" fill="#005D9F"/>
</g>
</svg>
