<svg width="25" height="24" viewBox="0 0 25 24" fill="none" xmlns="http://www.w3.org/2000/svg">
<g id="nest_thermostat_e_eu_FILL0_wght300_GRAD0_opsz24 2">
<path id="Vector" d="M5.45194 21.5C5.03656 21.5 4.68271 21.3522 4.39041 21.0567C4.09811 20.7612 3.95196 20.409 3.95196 20H8.60196C7.08016 19.2744 5.81734 18.183 4.81349 16.726C3.80966 15.2689 3.30774 13.5878 3.30774 11.6827C3.30774 10.4109 3.54972 9.21927 4.03369 8.10773C4.51766 6.99618 5.17438 6.02407 6.00386 5.19138C6.83336 4.3587 7.80548 3.70197 8.92022 3.22121C10.035 2.74042 11.2282 2.50003 12.5 2.50003C13.7718 2.50003 14.9651 2.74042 16.0798 3.22121C17.1945 3.70197 18.1667 4.3587 18.9962 5.19138C19.8256 6.02407 20.4824 6.99618 20.9663 8.10773C21.4503 9.21927 21.6923 10.4109 21.6923 11.6827C21.6923 13.5878 21.192 15.2689 20.1913 16.726C19.1907 18.183 17.9263 19.2744 16.3981 20H21.0481C21.0481 20.409 20.9019 20.7612 20.6096 21.0567C20.3173 21.3522 19.9635 21.5 19.5481 21.5H5.45194ZM12.5 19.375C14.641 19.375 16.4584 18.6282 17.9519 17.1347C19.4455 15.6411 20.1923 13.8237 20.1923 11.6827C20.1923 9.54167 19.4455 7.72596 17.9519 6.23558C16.4584 4.7452 14.641 4.00001 12.5 4.00001C10.359 4.00001 8.54167 4.7452 7.04809 6.23558C5.55449 7.72596 4.80769 9.54167 4.80769 11.6827C4.80769 13.8237 5.55449 15.6411 7.04809 17.1347C8.54167 18.6282 10.359 19.375 12.5 19.375ZM7.85772 14.8173H11.5423V13.9481H9.10191L9.08654 13.9173C9.38141 13.6224 9.66217 13.349 9.92884 13.0971C10.1955 12.8452 10.4148 12.6333 10.5865 12.4615C10.8801 12.1679 11.1013 11.8728 11.25 11.576C11.3987 11.2792 11.4731 10.9789 11.4731 10.675C11.4731 10.2507 11.3071 9.87501 10.975 9.54808C10.643 9.22116 10.193 9.05771 9.62502 9.05771C9.07118 9.05771 8.65035 9.20866 8.36251 9.51058C8.0747 9.8125 7.89297 10.0744 7.81734 10.2962L8.67694 10.6385C8.71924 10.541 8.80995 10.4032 8.94907 10.225C9.08817 10.0468 9.30515 9.95768 9.60002 9.95768C9.9513 9.95768 10.1885 10.0554 10.3116 10.251C10.4346 10.4465 10.4962 10.6045 10.4962 10.725C10.4962 10.8776 10.4664 11.0311 10.4067 11.1856C10.3471 11.3401 10.1891 11.5558 9.93272 11.8327C9.7699 12.0058 9.48913 12.2885 9.09042 12.6808C8.6917 13.0731 8.2808 13.4776 7.85772 13.8942V14.8173ZM14.85 14.9423C15.5808 14.9423 16.1539 14.6612 16.5692 14.099C16.9846 13.5369 17.1923 12.8372 17.1923 12C17.1923 11.1628 16.9805 10.4631 16.5567 9.90098C16.133 9.3388 15.5641 9.05771 14.85 9.05771C14.1192 9.05771 13.5462 9.3388 13.1308 9.90098C12.7154 10.4631 12.5077 11.1628 12.5077 12C12.5077 12.8372 12.7154 13.5369 13.1308 14.099C13.5462 14.6612 14.1192 14.9423 14.85 14.9423ZM14.85 14.0423C14.3974 14.0423 14.0516 13.8513 13.8125 13.4692C13.5734 13.0872 13.4539 12.5974 13.4539 12C13.4539 11.491 13.5664 11.0234 13.7914 10.5971C14.0164 10.1708 14.3692 9.95768 14.85 9.95768C15.3308 9.95768 15.6837 10.1708 15.9087 10.5971C16.1337 11.0234 16.2462 11.491 16.2462 12C16.2462 12.5974 16.1266 13.0872 15.8875 13.4692C15.6484 13.8513 15.3026 14.0423 14.85 14.0423Z" fill="#4C4C4C"/>
</g>
</svg>
