<svg width="24" height="24" viewBox="0 0 24 24" fill="none" xmlns="http://www.w3.org/2000/svg">
<g id="add_FILL0_wght400_GRAD0_opsz48 2">
<path id="Vector" d="M2 9.25V4.5C2 4.1 2.15 3.75 2.45 3.45C2.75 3.15 3.1 3 3.5 3H20.5C20.9 3 21.25 3.15 21.55 3.45C21.85 3.75 22 4.1 22 4.5V9.25H20.5V4.5H3.5V9.25H2ZM3.5 18C3.1 18 2.75 17.85 2.45 17.55C2.15 17.25 2 16.9 2 16.5V10.75H3.5V16.5H20.5V10.75H22V16.5C22 16.9 21.85 17.25 21.55 17.55C21.25 17.85 20.9 18 20.5 18H3.5ZM1 21V19.5H23V21H1ZM2 10.75V9.25H8C8.13602 9.25 8.26586 9.28333 8.38952 9.35C8.51318 9.41667 8.60833 9.51667 8.675 9.65L10.05 12.45L13.325 6.675C13.3917 6.54167 13.4875 6.44583 13.6125 6.3875C13.7375 6.32917 13.8677 6.3 14.003 6.3C14.1383 6.3 14.2675 6.32917 14.3905 6.3875C14.5135 6.44583 14.6083 6.54167 14.675 6.675L15.9388 9.25H22V10.75H15.475C15.3375 10.75 15.2063 10.7167 15.0813 10.65C14.9563 10.5833 14.8625 10.4833 14.8 10.35L13.95 8.625L10.675 14.35C10.613 14.4833 10.5199 14.5833 10.3958 14.65C10.2716 14.7167 10.1413 14.75 10.0048 14.75C9.86826 14.75 9.7375 14.7167 9.6125 14.65C9.4875 14.5833 9.39167 14.4833 9.325 14.35L7.525 10.75H2Z" fill="#005D9F"/>
</g>
</svg>
