<svg width="24" height="24" viewBox="0 0 24 24" fill="none" xmlns="http://www.w3.org/2000/svg">
<g id="account_balance_wallet_FILL0_wght300_GRAD0_opsz24 2">
<path id="Vector" d="M16 13.5C16.4333 13.5 16.7916 13.3583 17.075 13.075C17.3583 12.7917 17.5 12.4333 17.5 12C17.5 11.5667 17.3583 11.2083 17.075 10.925C16.7916 10.6417 16.4333 10.5 16 10.5C15.5666 10.5 15.2083 10.6417 14.925 10.925C14.6416 11.2083 14.5 11.5667 14.5 12C14.5 12.4333 14.6416 12.7917 14.925 13.075C15.2083 13.3583 15.5666 13.5 16 13.5ZM4.99997 17.9999V19V5.00001V17.9999ZM5.3077 20.5C4.80257 20.5 4.375 20.325 4.025 19.975C3.675 19.625 3.5 19.1974 3.5 18.6923V5.30773C3.5 4.8026 3.675 4.37503 4.025 4.02503C4.375 3.67503 4.80257 3.50003 5.3077 3.50003H18.6923C19.1974 3.50003 19.625 3.67503 19.975 4.02503C20.325 4.37503 20.5 4.8026 20.5 5.30773V8.02888H19V5.30773C19 5.21798 18.9711 5.14426 18.9134 5.08656C18.8557 5.02886 18.782 5.00001 18.6923 5.00001H5.3077C5.21795 5.00001 5.14423 5.02886 5.08653 5.08656C5.02883 5.14426 4.99997 5.21798 4.99997 5.30773V18.6923C4.99997 18.782 5.02883 18.8558 5.08653 18.9135C5.14423 18.9712 5.21795 19 5.3077 19H18.6923C18.782 19 18.8557 18.9712 18.9134 18.9135C18.9711 18.8558 19 18.782 19 18.6923V15.9711H20.5V18.6923C20.5 19.1974 20.325 19.625 19.975 19.975C19.625 20.325 19.1974 20.5 18.6923 20.5H5.3077ZM13.3077 16.5C12.8026 16.5 12.375 16.325 12.025 15.975C11.675 15.625 11.5 15.1974 11.5 14.6923V9.30773C11.5 8.8026 11.675 8.37503 12.025 8.02503C12.375 7.67503 12.8026 7.50003 13.3077 7.50003H19.6922C20.1974 7.50003 20.625 7.67503 20.975 8.02503C21.325 8.37503 21.5 8.8026 21.5 9.30773V14.6923C21.5 15.1974 21.325 15.625 20.975 15.975C20.625 16.325 20.1974 16.5 19.6922 16.5H13.3077ZM19.6922 15C19.782 15 19.8557 14.9712 19.9134 14.9135C19.9711 14.8558 20 14.782 20 14.6923V9.30773C20 9.21798 19.9711 9.14426 19.9134 9.08656C19.8557 9.02886 19.782 9.00001 19.6922 9.00001H13.3077C13.218 9.00001 13.1442 9.02886 13.0865 9.08656C13.0288 9.14426 13 9.21798 13 9.30773V14.6923C13 14.782 13.0288 14.8558 13.0865 14.9135C13.1442 14.9712 13.218 15 13.3077 15H19.6922Z" fill="#4C4C4C"/>
</g>
</svg>
