<svg width="24" height="24" viewBox="0 0 24 24" fill="none" xmlns="http://www.w3.org/2000/svg">
<g id="add_FILL0_wght400_GRAD0_opsz48 2">
<path id="Vector" d="M9.99997 11.6922C9.03749 11.6922 8.21354 11.3495 7.52813 10.6641C6.84271 9.97873 6.5 9.15478 6.5 8.1923C6.5 7.2298 6.84271 6.40585 7.52813 5.72045C8.21354 5.03503 9.03749 4.69232 9.99997 4.69232C10.9625 4.69232 11.7864 5.03503 12.4718 5.72045C13.1572 6.40585 13.5 7.2298 13.5 8.1923C13.5 9.15478 13.1572 9.97873 12.4718 10.6641C11.7864 11.3495 10.9625 11.6922 9.99997 11.6922ZM2.5 19.3076V17.0846C2.5 16.5795 2.62885 16.1221 2.88655 15.7125C3.14423 15.3029 3.50384 14.9859 3.96537 14.7615C4.79616 14.3474 5.69359 14.0016 6.65768 13.724C7.62178 13.4465 8.73588 13.3077 9.99997 13.3077H10.2923C10.373 13.3077 10.4602 13.3179 10.5538 13.3384C10.4525 13.5743 10.3689 13.8147 10.3028 14.0596C10.2368 14.3045 10.182 14.5538 10.1385 14.8076H9.99997C8.84869 14.8076 7.82947 14.94 6.9423 15.2048C6.05512 15.4695 5.29229 15.7679 4.65383 16.0999C4.42691 16.2217 4.2612 16.3641 4.1567 16.5269C4.05222 16.6897 3.99998 16.8756 3.99998 17.0846V17.8076H10.3C10.3743 18.0615 10.4708 18.3192 10.5894 18.5807C10.708 18.8422 10.8384 19.0845 10.9807 19.3076H2.5ZM16.1058 20.048L15.8827 18.7211C15.6442 18.6506 15.4199 18.5582 15.2096 18.4441C14.9993 18.33 14.7993 18.1871 14.6096 18.0153L13.3423 18.4557L12.6308 17.2461L13.6654 16.3999C13.5936 16.141 13.5577 15.8859 13.5577 15.6346C13.5577 15.3833 13.5936 15.1281 13.6654 14.8692L12.6404 14.0038L13.3519 12.7942L14.6096 13.2442C14.7929 13.0724 14.9913 12.9311 15.2048 12.8202C15.4183 12.7093 15.6442 12.6186 15.8827 12.548L16.1058 11.2211H17.5288L17.7423 12.548C17.9807 12.6186 18.2067 12.7118 18.4201 12.8279C18.6336 12.9439 18.832 13.0929 19.0153 13.275L20.273 12.7942L20.9845 14.0346L19.9595 14.8999C20.0313 15.1404 20.0672 15.3909 20.0672 15.6515C20.0672 15.912 20.0313 16.1615 19.9595 16.3999L20.9942 17.2461L20.2826 18.4557L19.0153 18.0153C18.8256 18.1871 18.6256 18.33 18.4153 18.4441C18.2051 18.5582 17.9807 18.6506 17.7423 18.7211L17.5288 20.048H16.1058ZM16.8085 17.5384C17.3323 17.5384 17.7804 17.3519 18.1529 16.9789C18.5253 16.6059 18.7115 16.1575 18.7115 15.6337C18.7115 15.1099 18.525 14.6618 18.152 14.2894C17.779 13.9169 17.3306 13.7307 16.8068 13.7307C16.283 13.7307 15.8349 13.9172 15.4625 14.2902C15.09 14.6632 14.9038 15.1116 14.9038 15.6354C14.9038 16.1592 15.0903 16.6073 15.4633 16.9797C15.8363 17.3522 16.2847 17.5384 16.8085 17.5384ZM9.99997 10.1923C10.55 10.1923 11.0208 9.99646 11.4125 9.6048C11.8041 9.21313 12 8.7423 12 8.1923C12 7.6423 11.8041 7.17146 11.4125 6.7798C11.0208 6.38813 10.55 6.1923 9.99997 6.1923C9.44998 6.1923 8.97914 6.38813 8.58747 6.7798C8.19581 7.17146 7.99997 7.6423 7.99997 8.1923C7.99997 8.7423 8.19581 9.21313 8.58747 9.6048C8.97914 9.99646 9.44998 10.1923 9.99997 10.1923Z" fill="#005D9F"/>
</g>
</svg>
