<svg width="25" height="24" viewBox="0 0 25 24" fill="none" xmlns="http://www.w3.org/2000/svg">
<g id="&#208;&#159;&#209;&#128;&#208;&#190;&#209;&#132;&#208;&#184;&#208;&#187;&#209;&#140;">
<path id="Vector" d="M10.5 11.6923C9.53749 11.6923 8.71354 11.3496 8.02813 10.6642C7.34271 9.97876 7 9.15481 7 8.19233C7 7.22983 7.34271 6.40588 8.02813 5.72048C8.71354 5.03506 9.53749 4.69235 10.5 4.69235C11.4625 4.69235 12.2864 5.03506 12.9718 5.72048C13.6572 6.40588 14 7.22983 14 8.19233C14 9.15481 13.6572 9.97876 12.9718 10.6642C12.2864 11.3496 11.4625 11.6923 10.5 11.6923ZM3 19.3077V17.0846C3 16.5795 3.12885 16.1221 3.38655 15.7125C3.64423 15.3029 4.00384 14.9859 4.46537 14.7616C5.29616 14.3475 6.19359 14.0016 7.15768 13.7241C8.12178 13.4465 9.23588 13.3077 10.5 13.3077H10.7923C10.873 13.3077 10.9602 13.318 11.0538 13.3385C10.9525 13.5744 10.8689 13.8148 10.8028 14.0596C10.7368 14.3045 10.682 14.5538 10.6385 14.8077H10.5C9.34869 14.8077 8.32947 14.9401 7.4423 15.2048C6.55512 15.4695 5.79229 15.7679 5.15383 16.1C4.92691 16.2218 4.7612 16.3641 4.6567 16.5269C4.55222 16.6897 4.49998 16.8756 4.49998 17.0846V17.8077H10.8C10.8743 18.0615 10.9708 18.3192 11.0894 18.5807C11.208 18.8423 11.3384 19.0846 11.4807 19.3077H3ZM16.6058 20.048L16.3827 18.7211C16.1442 18.6506 15.9199 18.5583 15.7096 18.4442C15.4993 18.3301 15.2993 18.1871 15.1096 18.0153L13.8423 18.4557L13.1308 17.2461L14.1654 16.4C14.0936 16.141 14.0577 15.8859 14.0577 15.6346C14.0577 15.3833 14.0936 15.1282 14.1654 14.8692L13.1404 14.0038L13.8519 12.7943L15.1096 13.2443C15.2929 13.0725 15.4913 12.9311 15.7048 12.8202C15.9183 12.7093 16.1442 12.6186 16.3827 12.5481L16.6058 11.2212H18.0288L18.2423 12.5481C18.4807 12.6186 18.7067 12.7119 18.9201 12.8279C19.1336 12.9439 19.332 13.093 19.5153 13.275L20.773 12.7943L21.4845 14.0346L20.4595 14.9C20.5313 15.1405 20.5672 15.391 20.5672 15.6515C20.5672 15.912 20.5313 16.1615 20.4595 16.4L21.4942 17.2461L20.7826 18.4557L19.5153 18.0153C19.3256 18.1871 19.1256 18.3301 18.9153 18.4442C18.7051 18.5583 18.4807 18.6506 18.2423 18.7211L18.0288 20.048H16.6058ZM17.3085 17.5384C17.8323 17.5384 18.2804 17.3519 18.6529 16.9789C19.0253 16.6059 19.2115 16.1575 19.2115 15.6338C19.2115 15.11 19.025 14.6618 18.652 14.2894C18.279 13.917 17.8306 13.7308 17.3068 13.7308C16.783 13.7308 16.3349 13.9173 15.9625 14.2903C15.59 14.6633 15.4038 15.1117 15.4038 15.6355C15.4038 16.1592 15.5903 16.6073 15.9633 16.9798C16.3363 17.3522 16.7847 17.5384 17.3085 17.5384ZM10.5 10.1923C11.05 10.1923 11.5208 9.99649 11.9125 9.60483C12.3041 9.21316 12.5 8.74233 12.5 8.19233C12.5 7.64233 12.3041 7.17149 11.9125 6.77983C11.5208 6.38816 11.05 6.19233 10.5 6.19233C9.94998 6.19233 9.47914 6.38816 9.08747 6.77983C8.69581 7.17149 8.49997 7.64233 8.49997 8.19233C8.49997 8.74233 8.69581 9.21316 9.08747 9.60483C9.47914 9.99649 9.94998 10.1923 10.5 10.1923Z" fill="#4C4C4C"/>
</g>
</svg>
